# Blender v2.77 (sub 0) OBJ File: 'trad.blend'
# www.blender.org
o Cylinder_Cylinder.002
v 0.202031 -0.137567 -0.984095
v 0.202031 1.862433 -0.984095
v 0.397122 -0.137567 -0.964881
v 0.397122 1.862433 -0.964881
v 0.584715 -0.137567 -0.907975
v 0.584715 1.862433 -0.907975
v 0.757602 -0.137567 -0.815565
v 0.757602 1.862433 -0.815565
v 0.909138 -0.137567 -0.691202
v 0.909138 1.862433 -0.691202
v 1.033501 -0.137567 -0.539666
v 1.033501 1.862433 -0.539666
v 1.125911 -0.137567 -0.366779
v 1.125911 1.862433 -0.366779
v 1.182817 -0.137567 -0.179186
v 1.182817 1.862433 -0.179186
v 1.202031 -0.137567 0.015904
v 1.202031 1.862433 0.015904
v 1.182817 -0.137567 0.210995
v 1.182817 1.862433 0.210995
v 1.125911 -0.137567 0.398588
v 1.125911 1.862433 0.398588
v 1.033501 -0.137567 0.571475
v 1.033501 1.862433 0.571475
v 0.909138 -0.137567 0.723011
v 0.909138 1.862433 0.723011
v 0.757602 -0.137567 0.847374
v 0.757602 1.862433 0.847374
v 0.584715 -0.137567 0.939784
v 0.584715 1.862433 0.939784
v 0.397122 -0.137567 0.996690
v 0.397122 1.862433 0.996690
v 0.202031 -0.137567 1.015905
v 0.202031 1.862433 1.015905
v 0.006941 -0.137567 0.996690
v 0.006941 1.862433 0.996690
v -0.180652 -0.137567 0.939784
v -0.180652 1.862433 0.939784
v -0.353539 -0.137567 0.847374
v -0.353539 1.862433 0.847374
v -0.505076 -0.137567 0.723011
v -0.505076 1.862433 0.723011
v -0.629439 -0.137567 0.571474
v -0.629439 1.862433 0.571474
v -0.721848 -0.137567 0.398587
v -0.721848 1.862433 0.398587
v -0.778754 -0.137567 0.210994
v -0.778754 1.862433 0.210994
v -0.797969 -0.137567 0.015904
v -0.797969 1.862433 0.015904
v -0.778754 -0.137567 -0.179187
v -0.778754 1.862433 -0.179187
v -0.721848 -0.137567 -0.366780
v -0.721848 1.862433 -0.366780
v -0.629437 -0.137567 -0.539667
v -0.629437 1.862433 -0.539667
v -0.505074 -0.137567 -0.691203
v -0.505074 1.862433 -0.691203
v -0.353538 -0.137567 -0.815566
v -0.353538 1.862433 -0.815566
v -0.180651 -0.137567 -0.907976
v -0.180651 1.862433 -0.907976
v 0.006943 -0.137567 -0.964881
v 0.006943 1.862433 -0.964881
v 0.202031 -0.137567 -0.984095
v 0.397122 -0.137567 -0.964881
v 0.397122 1.862433 -0.964881
v 0.202031 1.862433 -0.984095
v 0.584715 -0.137567 -0.907975
v 0.584715 1.862433 -0.907975
v 0.757602 -0.137567 -0.815565
v 0.757602 1.862433 -0.815565
v 0.909138 -0.137567 -0.691202
v 0.909138 1.862433 -0.691202
v 1.033501 -0.137567 -0.539666
v 1.033501 1.862433 -0.539666
v 1.125911 -0.137567 -0.366779
v 1.125911 1.862433 -0.366779
v 1.182817 -0.137567 -0.179186
v 1.182817 1.862433 -0.179186
v 1.202031 -0.137567 0.015904
v 1.202031 1.862433 0.015904
v 1.182817 -0.137567 0.210995
v 1.182817 1.862433 0.210995
v 1.125911 -0.137567 0.398588
v 1.125911 1.862433 0.398588
v 1.033501 -0.137567 0.571475
v 1.033501 1.862433 0.571475
v 0.909138 -0.137567 0.723011
v 0.909138 1.862433 0.723011
v 0.757602 -0.137567 0.847374
v 0.757602 1.862433 0.847374
v 0.584715 -0.137567 0.939784
v 0.584715 1.862433 0.939784
v 0.397122 -0.137567 0.996690
v 0.397122 1.862433 0.996690
v 0.202031 -0.137567 1.015905
v 0.202031 1.862433 1.015905
v 0.006941 -0.137567 0.996690
v 0.006941 1.862433 0.996690
v -0.180652 -0.137567 0.939784
v -0.180652 1.862433 0.939784
v -0.353539 -0.137567 0.847374
v -0.353539 1.862433 0.847374
v -0.505076 -0.137567 0.723011
v -0.505076 1.862433 0.723011
v -0.629439 -0.137567 0.571474
v -0.629439 1.862433 0.571474
v -0.721848 -0.137567 0.398587
v -0.721848 1.862433 0.398587
v -0.778754 -0.137567 0.210994
v -0.778754 1.862433 0.210994
v -0.797969 -0.137567 0.015904
v -0.797969 1.862433 0.015904
v -0.778754 -0.137567 -0.179187
v -0.778754 1.862433 -0.179187
v -0.721848 -0.137567 -0.366780
v -0.721848 1.862433 -0.366780
v -0.629437 -0.137567 -0.539667
v -0.629437 1.862433 -0.539667
v -0.505074 -0.137567 -0.691203
v -0.505074 1.862433 -0.691203
v -0.353538 -0.137567 -0.815566
v -0.353538 1.862433 -0.815566
v -0.180651 -0.137567 -0.907976
v -0.180651 1.862433 -0.907976
v 0.006943 -0.137567 -0.964881
v 0.006943 1.862433 -0.964881
v 0.397122 5.864857 -0.964881
v 0.202031 5.864857 -0.984095
v 0.584715 5.864857 -0.907975
v 0.757602 5.864857 -0.815565
v 0.909138 5.864857 -0.691202
v 1.033501 5.864857 -0.539666
v 1.125911 5.864857 -0.366779
v 1.182817 5.864857 -0.179186
v 1.202031 5.864857 0.015904
v 1.182817 5.864857 0.210995
v 1.125911 5.864857 0.398588
v 1.033501 5.864857 0.571475
v 0.909138 5.864857 0.723011
v 0.757602 5.864857 0.847374
v 0.584715 5.864857 0.939784
v 0.397122 5.864857 0.996690
v 0.202031 5.864857 1.015905
v 0.006941 5.864857 0.996690
v -0.180652 5.864857 0.939784
v -0.353539 5.864857 0.847374
v -0.505076 5.864857 0.723011
v -0.629439 5.864857 0.571474
v -0.721848 5.864857 0.398587
v -0.778754 5.864857 0.210994
v -0.797969 5.864857 0.015904
v -0.778754 5.864857 -0.179187
v -0.721848 5.864857 -0.366780
v -0.629437 5.864857 -0.539667
v -0.505074 5.864857 -0.691203
v -0.353538 5.864857 -0.815566
v -0.180651 5.864857 -0.907976
v 0.006943 5.864857 -0.964881
vt 0.1395 0.7501
vt 0.1143 1.0000
vt 0.1143 0.7501
vt 0.1633 0.7501
vt 0.1395 1.0000
vt 0.1847 0.7501
vt 0.1633 1.0000
vt 0.2029 0.7501
vt 0.1847 1.0000
vt 0.2243 0.7501
vt 0.2029 1.0000
vt 0.2480 0.7501
vt 0.2243 1.0000
vt 0.2733 0.7501
vt 0.2480 1.0000
vt 0.2990 0.7501
vt 0.2733 1.0000
vt 0.3242 0.7501
vt 0.2990 1.0000
vt 0.3480 0.7501
vt 0.3242 1.0000
vt 0.3694 0.7501
vt 0.3480 1.0000
vt 0.3876 0.7501
vt 0.3694 1.0000
vt 0.5937 0.7501
vt 0.5723 1.0000
vt 0.5723 0.7501
vt 0.6174 0.7501
vt 0.5937 1.0000
vt 0.6427 0.7501
vt 0.6174 1.0000
vt 0.6684 0.7501
vt 0.6427 1.0000
vt 0.6936 0.7501
vt 0.6684 1.0000
vt 0.7174 0.7501
vt 0.6936 1.0000
vt 0.7388 0.7501
vt 0.7174 1.0000
vt 0.4058 0.7501
vt 0.3876 1.0000
vt 0.3876 0.7501
vt 0.4272 0.7501
vt 0.4058 1.0000
vt 0.4509 0.7501
vt 0.4272 1.0000
vt 0.4762 0.7501
vt 0.4509 1.0000
vt 0.5019 0.7501
vt 0.4762 1.0000
vt 0.5271 0.7501
vt 0.5019 1.0000
vt 0.5509 0.7501
vt 0.5271 1.0000
vt 0.5723 0.7501
vt 0.5509 1.0000
vt 0.0182 0.7501
vt 0.0000 1.0000
vt 0.0000 0.7501
vt 0.0396 0.7501
vt 0.0182 1.0000
vt 0.0634 0.7501
vt 0.0396 1.0000
vt 0.8565 0.9949
vt 0.7388 0.8583
vt 1.0000 0.8828
vt 0.0886 0.7501
vt 0.0634 1.0000
vt 0.0886 1.0000
vt 0.7680 0.2036
vt 0.7861 0.0278
vt 0.9708 0.0451
vt 0.0886 0.2499
vt 0.0633 0.0000
vt 0.0886 0.0000
vt 0.0634 0.2499
vt 0.0396 0.0000
vt 0.0396 0.2499
vt 0.0182 0.0000
vt 0.0182 0.2499
vt 0.0000 0.0000
vt 0.5723 0.2499
vt 0.5509 0.0000
vt 0.5723 0.0000
vt 0.5509 0.2499
vt 0.5271 0.0000
vt 0.5271 0.2499
vt 0.5019 0.0000
vt 0.5019 0.2499
vt 0.4762 0.0000
vt 0.4762 0.2499
vt 0.4509 0.0000
vt 0.4509 0.2499
vt 0.4272 0.0000
vt 0.4272 0.2499
vt 0.4058 0.0000
vt 0.4058 0.2499
vt 0.3876 0.0000
vt 0.3876 0.2499
vt 0.3662 0.0000
vt 0.3662 0.2499
vt 0.3424 0.0000
vt 0.3424 0.2499
vt 0.3172 0.0000
vt 0.3172 0.2499
vt 0.2915 0.0000
vt 0.2915 0.2499
vt 0.2662 0.0000
vt 0.2662 0.2499
vt 0.2425 0.0000
vt 0.2425 0.2499
vt 0.2211 0.0000
vt 0.2211 0.2499
vt 0.2029 0.0000
vt 0.7388 0.2499
vt 0.7174 0.0000
vt 0.7388 0.0000
vt 0.7174 0.2499
vt 0.6936 0.0000
vt 0.6936 0.2499
vt 0.6684 0.0000
vt 0.6684 0.2499
vt 0.6427 0.0000
vt 0.6427 0.2499
vt 0.6174 0.0000
vt 0.6174 0.2499
vt 0.5937 0.0000
vt 0.5937 0.2499
vt 0.5723 0.0000
vt 0.2029 0.2499
vt 0.1847 0.0000
vt 0.2029 0.0000
vt 0.1847 0.2499
vt 0.1633 0.0000
vt 0.1633 0.2499
vt 0.1395 0.0000
vt 0.4509 0.7501
vt 0.1395 0.2499
vt 0.1143 0.0000
vt 0.1143 0.2499
vt 0.9950 0.4094
vt 0.8313 0.4927
vt 0.9075 0.2535
vt 0.8565 0.4974
vt 0.9527 0.5252
vt 0.9708 0.7011
vt 0.2425 0.7501
vt 0.5723 0.7501
vt 0.5723 0.2499
vt 0.5509 0.7501
vt 0.3424 0.7501
vt 0.6684 0.7501
vt 0.0634 0.7501
vt 0.0886 0.7501
vt 0.4272 0.7501
vt 0.2211 0.7501
vt 0.1847 0.7501
vt 0.5271 0.7501
vt 0.3172 0.7501
vt 0.6427 0.7501
vt 0.0396 0.7501
vt 0.4058 0.7501
vt 0.2029 0.7501
vt 0.2029 0.2499
vt 0.1633 0.7501
vt 0.5019 0.7501
vt 0.2915 0.7501
vt 0.6174 0.7501
vt 0.0182 0.7501
vt 0.3876 0.7501
vt 0.7174 0.7501
vt 0.1395 0.7501
vt 0.4762 0.7501
vt 0.2662 0.7501
vt 0.5937 0.7501
vt 0.0000 0.7501
vt 0.0000 0.2499
vt 0.3662 0.7501
vt 0.6936 0.7501
vt 0.1143 0.7501
vt 0.3876 1.0000
vt 0.7388 1.0000
vt 0.5723 1.0000
vt 0.8823 0.7462
vt 0.9075 0.7509
vt 0.9708 0.7912
vt 0.9313 0.7603
vt 0.9527 0.7739
vt 0.9851 0.8116
vt 0.9950 0.8342
vt 1.0000 0.8583
vt 0.9950 0.9068
vt 0.9851 0.9294
vt 0.9708 0.9498
vt 0.9527 0.9671
vt 0.9313 0.9807
vt 0.9075 0.9901
vt 0.8823 0.9949
vt 0.8313 0.9901
vt 0.8075 0.9807
vt 0.7861 0.9671
vt 0.7680 0.9498
vt 0.7537 0.9294
vt 0.7438 0.9068
vt 0.7388 0.8828
vt 0.7438 0.8342
vt 0.7537 0.8116
vt 0.7680 0.7912
vt 0.7861 0.7739
vt 0.8075 0.7603
vt 0.8313 0.7509
vt 0.8565 0.7462
vt 0.9851 0.0655
vt 0.9950 0.0881
vt 1.0000 0.1121
vt 1.0000 0.1366
vt 0.9950 0.1606
vt 0.9527 0.2210
vt 0.9851 0.1833
vt 0.9708 0.2036
vt 0.9313 0.2346
vt 0.8565 0.2487
vt 0.9075 0.2439
vt 0.8823 0.2487
vt 0.8313 0.2439
vt 0.8075 0.2346
vt 0.7861 0.2210
vt 0.7537 0.1833
vt 0.7388 0.1121
vt 0.7438 0.1606
vt 0.7388 0.1366
vt 0.7438 0.0881
vt 0.7537 0.0655
vt 0.7680 0.0451
vt 0.8075 0.0142
vt 0.8313 0.0048
vt 0.8565 0.0000
vt 0.8823 0.0000
vt 0.9075 0.0048
vt 0.9313 0.0142
vt 0.9527 0.0278
vt 0.7438 0.3368
vt 0.7537 0.3142
vt 0.7680 0.2938
vt 0.7861 0.2765
vt 0.8075 0.2629
vt 0.8313 0.2535
vt 0.8565 0.2487
vt 0.8823 0.2487
vt 0.9313 0.2629
vt 0.9527 0.2765
vt 0.9708 0.2938
vt 0.9851 0.3142
vt 0.9950 0.3368
vt 1.0000 0.3608
vt 1.0000 0.3853
vt 0.9851 0.4320
vt 0.9708 0.4524
vt 0.9527 0.4697
vt 0.9313 0.4833
vt 0.9075 0.4927
vt 0.8823 0.4974
vt 0.8565 0.4974
vt 0.8075 0.4833
vt 0.7537 0.4320
vt 0.7861 0.4697
vt 0.7680 0.4524
vt 0.7438 0.4094
vt 0.7388 0.3853
vt 0.7388 0.3608
vt 0.9527 0.7184
vt 0.9313 0.7320
vt 0.9075 0.7414
vt 0.8823 0.7462
vt 0.8565 0.7462
vt 0.8313 0.7414
vt 0.8075 0.7320
vt 0.7861 0.7184
vt 0.7680 0.7011
vt 0.7537 0.6807
vt 0.7438 0.6581
vt 0.7388 0.6341
vt 0.7388 0.6096
vt 0.7438 0.5855
vt 0.7537 0.5629
vt 0.7680 0.5425
vt 0.7861 0.5252
vt 0.8075 0.5116
vt 0.8313 0.5022
vt 0.8823 0.4974
vt 0.9075 0.5022
vt 0.9313 0.5116
vt 0.9708 0.5425
vt 1.0000 0.6096
vt 0.9851 0.5629
vt 0.9950 0.5855
vt 1.0000 0.6341
vt 0.9950 0.6581
vt 0.9851 0.6807
vt 0.5723 0.7501
vt 0.2029 0.7501
vt 0.7388 0.7501
vn -0.0980 0.0000 0.9952
vn -0.2903 0.0000 0.9569
vn -0.4714 0.0000 0.8819
vn -0.6344 0.0000 0.7730
vn -0.7730 0.0000 0.6344
vn -0.8819 0.0000 0.4714
vn -0.9569 0.0000 0.2903
vn -0.9952 0.0000 0.0980
vn -0.9952 0.0000 -0.0980
vn -0.9569 0.0000 -0.2903
vn -0.8819 0.0000 -0.4714
vn -0.7730 0.0000 -0.6344
vn -0.6344 0.0000 -0.7730
vn -0.4714 0.0000 -0.8819
vn -0.2903 0.0000 -0.9569
vn -0.0980 0.0000 -0.9952
vn 0.0980 0.0000 -0.9952
vn 0.2903 0.0000 -0.9569
vn 0.4714 0.0000 -0.8819
vn 0.6344 0.0000 -0.7730
vn 0.7730 0.0000 -0.6344
vn 0.8819 0.0000 -0.4714
vn 0.9569 0.0000 -0.2903
vn 0.9952 0.0000 -0.0980
vn 0.9952 0.0000 0.0980
vn 0.9569 0.0000 0.2903
vn 0.8819 0.0000 0.4714
vn 0.7730 0.0000 0.6344
vn 0.6344 0.0000 0.7730
vn 0.4714 0.0000 0.8819
vn 0.0000 -1.0000 0.0000
vn 0.2903 0.0000 0.9569
vn 0.0980 0.0000 0.9952
vn 0.0000 1.0000 0.0000
s off
f 3/1/1 2/2/1 1/3/1
f 5/4/2 4/5/2 3/1/2
f 7/6/3 6/7/3 5/4/3
f 9/8/4 8/9/4 7/6/4
f 11/10/5 10/11/5 9/8/5
f 13/12/6 12/13/6 11/10/6
f 15/14/7 14/15/7 13/12/7
f 17/16/8 16/17/8 15/14/8
f 19/18/9 18/19/9 17/16/9
f 21/20/10 20/21/10 19/18/10
f 23/22/11 22/23/11 21/20/11
f 25/24/12 24/25/12 23/22/12
f 27/26/13 26/27/13 25/28/13
f 29/29/14 28/30/14 27/26/14
f 31/31/15 30/32/15 29/29/15
f 33/33/16 32/34/16 31/31/16
f 35/35/17 34/36/17 33/33/17
f 37/37/18 36/38/18 35/35/18
f 39/39/19 38/40/19 37/37/19
f 41/41/20 40/42/20 39/43/20
f 43/44/21 42/45/21 41/41/21
f 45/46/22 44/47/22 43/44/22
f 47/48/23 46/49/23 45/46/23
f 49/50/24 48/51/24 47/48/24
f 51/52/25 50/53/25 49/50/25
f 53/54/26 52/55/26 51/52/26
f 55/56/27 54/57/27 53/54/27
f 57/58/28 56/59/28 55/60/28
f 59/61/29 58/62/29 57/58/29
f 61/63/30 60/64/30 59/61/30
f 34/65/31 50/66/31 18/67/31
f 63/68/32 62/69/32 61/63/32
f 1/3/33 64/70/33 63/68/33
f 35/71/34 19/72/34 3/73/34
f 68/74/17 66/75/17 65/76/17
f 67/77/18 69/78/18 66/75/18
f 70/79/19 71/80/19 69/78/19
f 72/81/20 73/82/20 71/80/20
f 74/83/21 75/84/21 73/85/21
f 76/86/22 77/87/22 75/84/22
f 78/88/23 79/89/23 77/87/23
f 80/90/24 81/91/24 79/89/24
f 82/92/25 83/93/25 81/91/25
f 84/94/26 85/95/26 83/93/26
f 86/96/27 87/97/27 85/95/27
f 88/98/28 89/99/28 87/97/28
f 90/100/29 91/101/29 89/99/29
f 92/102/30 93/103/30 91/101/30
f 94/104/32 95/105/32 93/103/32
f 96/106/33 97/107/33 95/105/33
f 98/108/1 99/109/1 97/107/1
f 100/110/2 101/111/2 99/109/2
f 102/112/3 103/113/3 101/111/3
f 104/114/4 105/115/4 103/113/4
f 106/116/5 107/117/5 105/118/5
f 108/119/6 109/120/6 107/117/6
f 110/121/7 111/122/7 109/120/7
f 112/123/8 113/124/8 111/122/8
f 114/125/9 115/126/9 113/124/9
f 116/127/10 117/128/10 115/126/10
f 118/129/11 119/130/11 117/128/11
f 120/131/12 121/132/12 119/133/12
f 122/134/13 123/135/13 121/132/13
f 124/136/14 125/137/14 123/135/14
f 82/92/25 138/138/25 84/94/25
f 126/139/15 127/140/15 125/137/15
f 128/141/16 65/76/16 127/140/16
f 95/142/31 111/143/31 79/144/31
f 143/145/34 139/146/34 131/147/34
f 100/110/2 147/148/2 102/112/2
f 118/129/11 156/149/11 120/150/11
f 74/83/21 134/151/21 76/86/21
f 92/102/30 143/152/30 94/104/30
f 110/121/7 152/153/7 112/123/7
f 68/74/17 129/154/17 67/77/17
f 128/141/16 130/155/16 68/74/16
f 84/94/26 139/156/26 86/96/26
f 102/112/3 148/157/3 104/114/3
f 120/131/12 157/158/12 122/134/12
f 76/86/22 135/159/22 78/88/22
f 94/104/32 144/160/32 96/106/32
f 112/123/8 153/161/8 114/125/8
f 67/77/18 131/162/18 70/79/18
f 86/96/27 140/163/27 88/98/27
f 104/114/4 149/164/4 106/165/4
f 122/134/13 158/166/13 124/136/13
f 78/88/23 136/167/23 80/90/23
f 96/106/33 145/168/33 98/108/33
f 114/125/9 154/169/9 116/127/9
f 70/79/19 132/170/19 72/81/19
f 88/98/28 141/171/28 90/100/28
f 106/116/5 150/172/5 108/119/5
f 124/136/14 159/173/14 126/139/14
f 80/90/24 137/174/24 82/92/24
f 98/108/1 146/175/1 100/110/1
f 116/127/10 155/176/10 118/129/10
f 72/81/20 133/177/20 74/178/20
f 90/100/29 142/179/29 92/102/29
f 108/119/6 151/180/6 110/121/6
f 126/139/15 160/181/15 128/141/15
f 3/1/1 4/5/1 2/2/1
f 5/4/2 6/7/2 4/5/2
f 7/6/3 8/9/3 6/7/3
f 9/8/4 10/11/4 8/9/4
f 11/10/5 12/13/5 10/11/5
f 13/12/6 14/15/6 12/13/6
f 15/14/7 16/17/7 14/15/7
f 17/16/8 18/19/8 16/17/8
f 19/18/9 20/21/9 18/19/9
f 21/20/10 22/23/10 20/21/10
f 23/22/11 24/25/11 22/23/11
f 25/24/12 26/182/12 24/25/12
f 27/26/13 28/30/13 26/27/13
f 29/29/14 30/32/14 28/30/14
f 31/31/15 32/34/15 30/32/15
f 33/33/16 34/36/16 32/34/16
f 35/35/17 36/38/17 34/36/17
f 37/37/18 38/40/18 36/38/18
f 39/39/19 40/183/19 38/40/19
f 41/41/20 42/45/20 40/42/20
f 43/44/21 44/47/21 42/45/21
f 45/46/22 46/49/22 44/47/22
f 47/48/23 48/51/23 46/49/23
f 49/50/24 50/53/24 48/51/24
f 51/52/25 52/55/25 50/53/25
f 53/54/26 54/57/26 52/55/26
f 55/56/27 56/184/27 54/57/27
f 57/58/28 58/62/28 56/59/28
f 59/61/29 60/64/29 58/62/29
f 61/63/30 62/69/30 60/64/30
f 2/185/31 4/186/31 10/187/31
f 6/188/31 8/189/31 10/187/31
f 10/187/31 12/190/31 14/191/31
f 14/191/31 16/192/31 18/67/31
f 18/67/31 20/193/31 22/194/31
f 22/194/31 24/195/31 26/196/31
f 26/196/31 28/197/31 30/198/31
f 30/198/31 32/199/31 26/196/31
f 34/65/31 36/200/31 38/201/31
f 38/201/31 40/202/31 42/203/31
f 42/203/31 44/204/31 50/66/31
f 46/205/31 48/206/31 50/66/31
f 50/66/31 52/207/31 54/208/31
f 54/208/31 56/209/31 58/210/31
f 58/210/31 60/211/31 62/212/31
f 62/212/31 64/213/31 58/210/31
f 4/186/31 6/188/31 10/187/31
f 10/187/31 14/191/31 18/67/31
f 18/67/31 22/194/31 34/65/31
f 26/196/31 32/199/31 34/65/31
f 34/65/31 38/201/31 50/66/31
f 44/204/31 46/205/31 50/66/31
f 50/66/31 54/208/31 58/210/31
f 58/210/31 64/213/31 2/185/31
f 2/185/31 10/187/31 18/67/31
f 22/194/31 26/196/31 34/65/31
f 38/201/31 42/203/31 50/66/31
f 50/66/31 58/210/31 2/185/31
f 2/185/31 18/67/31 50/66/31
f 63/68/32 64/70/32 62/69/32
f 1/3/33 2/2/33 64/70/33
f 3/73/34 1/214/34 63/215/34
f 63/215/34 61/216/34 59/217/34
f 59/217/34 57/218/34 51/219/34
f 55/220/34 53/221/34 51/219/34
f 51/219/34 49/222/34 43/223/34
f 47/224/34 45/225/34 43/223/34
f 43/223/34 41/226/34 39/227/34
f 39/227/34 37/228/34 43/223/34
f 35/71/34 33/229/34 27/230/34
f 31/231/34 29/232/34 27/230/34
f 27/230/34 25/233/34 19/72/34
f 23/234/34 21/235/34 19/72/34
f 19/72/34 17/236/34 15/237/34
f 15/237/34 13/238/34 11/239/34
f 11/239/34 9/240/34 3/73/34
f 7/241/34 5/242/34 3/73/34
f 3/73/34 63/215/34 59/217/34
f 57/218/34 55/220/34 51/219/34
f 49/222/34 47/224/34 43/223/34
f 43/223/34 37/228/34 35/71/34
f 33/229/34 31/231/34 27/230/34
f 25/233/34 23/234/34 19/72/34
f 19/72/34 15/237/34 11/239/34
f 9/240/34 7/241/34 3/73/34
f 3/73/34 59/217/34 35/71/34
f 51/219/34 43/223/34 35/71/34
f 35/71/34 27/230/34 19/72/34
f 19/72/34 11/239/34 3/73/34
f 59/217/34 51/219/34 35/71/34
f 68/74/17 67/77/17 66/75/17
f 67/77/18 70/79/18 69/78/18
f 70/79/19 72/81/19 71/80/19
f 72/81/20 74/178/20 73/82/20
f 74/83/21 76/86/21 75/84/21
f 76/86/22 78/88/22 77/87/22
f 78/88/23 80/90/23 79/89/23
f 80/90/24 82/92/24 81/91/24
f 82/92/25 84/94/25 83/93/25
f 84/94/26 86/96/26 85/95/26
f 86/96/27 88/98/27 87/97/27
f 88/98/28 90/100/28 89/99/28
f 90/100/29 92/102/29 91/101/29
f 92/102/30 94/104/30 93/103/30
f 94/104/32 96/106/32 95/105/32
f 96/106/33 98/108/33 97/107/33
f 98/108/1 100/110/1 99/109/1
f 100/110/2 102/112/2 101/111/2
f 102/112/3 104/114/3 103/113/3
f 104/114/4 106/165/4 105/115/4
f 106/116/5 108/119/5 107/117/5
f 108/119/6 110/121/6 109/120/6
f 110/121/7 112/123/7 111/122/7
f 112/123/8 114/125/8 113/124/8
f 114/125/9 116/127/9 115/126/9
f 116/127/10 118/129/10 117/128/10
f 118/129/11 120/150/11 119/130/11
f 120/131/12 122/134/12 121/132/12
f 122/134/13 124/136/13 123/135/13
f 124/136/14 126/139/14 125/137/14
f 82/92/25 137/174/25 138/138/25
f 126/139/15 128/141/15 127/140/15
f 128/141/16 68/74/16 65/76/16
f 127/243/31 65/244/31 66/245/31
f 66/245/31 69/246/31 71/247/31
f 71/247/31 73/248/31 79/144/31
f 75/249/31 77/250/31 79/144/31
f 79/144/31 81/251/31 83/252/31
f 83/252/31 85/253/31 79/144/31
f 87/254/31 89/255/31 91/256/31
f 91/256/31 93/257/31 95/142/31
f 95/142/31 97/258/31 99/259/31
f 99/259/31 101/260/31 103/261/31
f 103/261/31 105/262/31 107/263/31
f 107/263/31 109/264/31 111/143/31
f 111/143/31 113/265/31 119/266/31
f 115/267/31 117/268/31 119/266/31
f 119/266/31 121/269/31 127/243/31
f 123/270/31 125/271/31 127/243/31
f 127/243/31 66/245/31 79/144/31
f 73/248/31 75/249/31 79/144/31
f 79/144/31 85/253/31 87/254/31
f 87/254/31 91/256/31 79/144/31
f 95/142/31 99/259/31 111/143/31
f 103/261/31 107/263/31 111/143/31
f 113/265/31 115/267/31 119/266/31
f 121/269/31 123/270/31 127/243/31
f 66/245/31 71/247/31 79/144/31
f 79/144/31 91/256/31 95/142/31
f 99/259/31 103/261/31 111/143/31
f 111/143/31 119/266/31 127/243/31
f 127/243/31 79/144/31 111/143/31
f 131/147/34 129/272/34 130/273/34
f 130/273/34 160/274/34 131/147/34
f 159/275/34 158/276/34 157/277/34
f 157/277/34 156/278/34 155/279/34
f 155/279/34 154/280/34 153/281/34
f 153/281/34 152/282/34 151/283/34
f 151/283/34 150/284/34 149/285/34
f 149/285/34 148/286/34 151/283/34
f 147/287/34 146/288/34 145/289/34
f 145/289/34 144/290/34 143/145/34
f 143/145/34 142/291/34 141/292/34
f 141/292/34 140/293/34 139/146/34
f 139/146/34 138/294/34 135/295/34
f 137/296/34 136/297/34 135/295/34
f 135/295/34 134/298/34 133/299/34
f 133/299/34 132/300/34 131/147/34
f 131/147/34 160/274/34 159/275/34
f 159/275/34 157/277/34 131/147/34
f 155/279/34 153/281/34 147/287/34
f 151/283/34 148/286/34 147/287/34
f 147/287/34 145/289/34 143/145/34
f 143/145/34 141/292/34 139/146/34
f 138/294/34 137/296/34 135/295/34
f 135/295/34 133/299/34 139/146/34
f 131/147/34 157/277/34 155/279/34
f 153/281/34 151/283/34 147/287/34
f 147/287/34 143/145/34 131/147/34
f 139/146/34 133/299/34 131/147/34
f 131/147/34 155/279/34 147/287/34
f 100/110/2 146/175/2 147/148/2
f 118/129/11 155/176/11 156/149/11
f 74/83/21 133/301/21 134/151/21
f 92/102/30 142/179/30 143/152/30
f 110/121/7 151/180/7 152/153/7
f 68/74/17 130/155/17 129/154/17
f 128/141/16 160/181/16 130/155/16
f 84/94/26 138/138/26 139/156/26
f 102/112/3 147/148/3 148/157/3
f 120/131/12 156/302/12 157/158/12
f 76/86/22 134/151/22 135/159/22
f 94/104/32 143/152/32 144/160/32
f 112/123/8 152/153/8 153/161/8
f 67/77/18 129/154/18 131/162/18
f 86/96/27 139/156/27 140/163/27
f 104/114/4 148/157/4 149/164/4
f 122/134/13 157/158/13 158/166/13
f 78/88/23 135/159/23 136/167/23
f 96/106/33 144/160/33 145/168/33
f 114/125/9 153/161/9 154/169/9
f 70/79/19 131/162/19 132/170/19
f 88/98/28 140/163/28 141/171/28
f 106/116/5 149/303/5 150/172/5
f 124/136/14 158/166/14 159/173/14
f 80/90/24 136/167/24 137/174/24
f 98/108/1 145/168/1 146/175/1
f 116/127/10 154/169/10 155/176/10
f 72/81/20 132/170/20 133/177/20
f 90/100/29 141/171/29 142/179/29
f 108/119/6 150/172/6 151/180/6
f 126/139/15 159/173/15 160/181/15
