# Blender v2.77 (sub 0) OBJ File: 'trad.blend'
# www.blender.org
o Cone
v 0.328401 2.901763 -5.969901
v 1.487923 2.901763 -5.855697
v 2.602886 2.901763 -5.517477
v 3.630439 2.901763 -4.968237
v 4.531100 2.901763 -4.229085
v 5.270252 2.901763 -3.328425
v 5.819492 2.901763 -2.300870
v 6.157712 2.901763 -1.185909
v 6.271915 2.901763 -0.026387
v -0.013143 10.402615 0.833879
v 6.157712 2.901763 1.133135
v 5.819492 2.901763 2.248097
v 5.270252 2.901763 3.275652
v 4.531100 2.901763 4.176313
v 3.630439 2.901763 4.915465
v 2.602884 2.901763 5.464705
v 1.487921 2.901763 5.802925
v 0.328399 2.901763 5.917127
v -0.831124 2.901763 5.802924
v -1.946085 2.901763 5.464704
v -2.973641 2.901763 4.915463
v -3.874301 2.901763 4.176310
v -4.613452 2.901763 3.275650
v -5.162692 2.901763 2.248094
v -5.500911 2.901763 1.133131
v -5.615113 2.901763 -0.026392
v -5.500909 2.901763 -1.185915
v -5.162688 2.901763 -2.300877
v -4.613447 2.901763 -3.328432
v -3.874293 2.901763 -4.229091
v -2.973632 2.901763 -4.968242
v -1.946075 2.901763 -5.517481
v -0.831112 2.901763 -5.855699
vt 0.6034 0.3258
vt 0.9959 0.0187
vt 0.6351 0.3762
vt 0.6729 0.4215
vt 0.7154 0.4600
vt 0.7609 0.4903
vt 0.8077 0.5111
vt 0.8540 0.5217
vt 0.8979 0.5217
vt 0.9379 0.5111
vt 0.9724 0.4903
vt 1.0000 0.4600
vt 0.9660 0.5451
vt 0.9660 0.9958
vt 0.9360 0.5285
vt 0.9000 0.5217
vt 0.8596 0.5251
vt 0.8163 0.5385
vt 0.7716 0.5614
vt 0.7275 0.5929
vt 0.6854 0.6318
vt 0.6472 0.6766
vt 0.6141 0.7256
vt 0.5876 0.7769
vt 0.5686 0.8285
vt 0.5578 0.8785
vt 0.5557 0.9249
vt 0.5623 0.9659
vt 0.5775 1.0000
vt 0.6160 0.0000
vt 0.5884 0.0303
vt 0.5687 0.0688
vt 0.5576 0.1141
vt 0.5557 0.1644
vt 0.5629 0.2179
vt 0.5790 0.2724
vt 0.5241 0.1675
vt 0.4094 0.6002
vt 0.0316 0.4689
vt 0.0107 0.4110
vt 0.0000 0.3495
vt 0.0000 0.2868
vt 0.0107 0.2254
vt 0.0316 0.1675
vt 0.0620 0.1154
vt 0.1007 0.0710
vt 0.1968 0.0122
vt 0.1462 0.0362
vt 0.2505 0.0000
vt 0.3052 0.0000
vt 0.3589 0.0122
vt 0.4094 0.0362
vt 0.4550 0.0710
vt 0.4937 0.1154
vt 0.5450 0.2254
vt 0.5450 0.4110
vt 0.5557 0.2868
vt 0.5557 0.3495
vt 0.5241 0.4689
vt 0.4937 0.5210
vt 0.4550 0.5653
vt 0.3589 0.6241
vt 0.3052 0.6364
vt 0.2505 0.6364
vt 0.1968 0.6241
vt 0.1462 0.6002
vt 0.1007 0.5653
vt 0.0620 0.5210
vn 0.0726 0.6719 -0.7371
vn 0.2145 0.6737 -0.7072
vn 0.3484 0.6735 -0.6519
vn 0.4701 0.6715 -0.5728
vn 0.5756 0.6675 -0.4724
vn 0.6612 0.6618 -0.3534
vn 0.7236 0.6544 -0.2195
vn 0.7601 0.6455 -0.0749
vn 0.7685 0.6353 0.0757
vn 0.7477 0.6241 0.2268
vn 0.6972 0.6124 0.3727
vn 0.6181 0.6005 0.5073
vn 0.5127 0.5890 0.6247
vn 0.3846 0.5783 0.7195
vn 0.2387 0.5691 0.7869
vn 0.0811 0.5617 0.8234
vn -0.0814 0.5566 0.8268
vn -0.2417 0.5541 0.7966
vn -0.3924 0.5543 0.7340
vn -0.5268 0.5572 0.6419
vn -0.6390 0.5627 0.5244
vn -0.7244 0.5703 0.3872
vn -0.7796 0.5798 0.2365
vn -0.8030 0.5907 0.0791
vn -0.7944 0.6023 -0.0782
vn -0.7552 0.6142 -0.2291
vn -0.6878 0.6259 -0.3677
vn -0.5960 0.6369 -0.4891
vn -0.4838 0.6469 -0.5895
vn -0.3560 0.6556 -0.6659
vn -0.2174 0.6628 -0.7166
vn -0.0729 0.6682 -0.7404
vn 0.0000 -1.0000 0.0000
s off
f 1/1/1 10/2/1 2/3/1
f 2/3/2 10/2/2 3/4/2
f 3/4/3 10/2/3 4/5/3
f 4/5/4 10/2/4 5/6/4
f 5/6/5 10/2/5 6/7/5
f 6/7/6 10/2/6 7/8/6
f 7/8/7 10/2/7 8/9/7
f 8/9/8 10/2/8 9/10/8
f 9/10/9 10/2/9 11/11/9
f 11/11/10 10/2/10 12/12/10
f 12/13/11 10/14/11 13/15/11
f 13/15/12 10/14/12 14/16/12
f 14/16/13 10/14/13 15/17/13
f 15/17/14 10/14/14 16/18/14
f 16/18/15 10/14/15 17/19/15
f 17/19/16 10/14/16 18/20/16
f 18/20/17 10/14/17 19/21/17
f 19/21/18 10/14/18 20/22/18
f 20/22/19 10/14/19 21/23/19
f 21/23/20 10/14/20 22/24/20
f 22/24/21 10/14/21 23/25/21
f 23/25/22 10/14/22 24/26/22
f 24/26/23 10/14/23 25/27/23
f 25/27/24 10/14/24 26/28/24
f 26/28/25 10/14/25 27/29/25
f 27/30/26 10/2/26 28/31/26
f 28/31/27 10/2/27 29/32/27
f 29/32/28 10/2/28 30/33/28
f 30/33/29 10/2/29 31/34/29
f 31/34/30 10/2/30 32/35/30
f 32/35/31 10/2/31 33/36/31
f 33/36/32 10/2/32 1/1/32
f 17/37/33 25/38/33 33/39/33
f 33/39/33 1/40/33 2/41/33
f 2/41/33 3/42/33 4/43/33
f 4/43/33 5/44/33 6/45/33
f 6/45/33 7/46/33 9/47/33
f 8/48/33 9/47/33 7/46/33
f 11/49/33 12/50/33 13/51/33
f 13/51/33 14/52/33 15/53/33
f 15/53/33 16/54/33 17/37/33
f 17/37/33 18/55/33 21/56/33
f 19/57/33 20/58/33 21/56/33
f 21/56/33 22/59/33 23/60/33
f 23/60/33 24/61/33 25/38/33
f 25/38/33 26/62/33 27/63/33
f 27/63/33 28/64/33 29/65/33
f 29/65/33 30/66/33 25/38/33
f 31/67/33 32/68/33 33/39/33
f 33/39/33 2/41/33 4/43/33
f 4/43/33 6/45/33 13/51/33
f 9/47/33 11/49/33 13/51/33
f 13/51/33 15/53/33 4/43/33
f 18/55/33 19/57/33 21/56/33
f 21/56/33 23/60/33 25/38/33
f 25/38/33 27/63/33 29/65/33
f 30/66/33 31/67/33 33/39/33
f 33/39/33 4/43/33 17/37/33
f 9/47/33 13/51/33 6/45/33
f 17/37/33 21/56/33 25/38/33
f 25/38/33 30/66/33 33/39/33
f 4/43/33 15/53/33 17/37/33
